<?xml version="1.0" encoding="UTF-8" standalone="no"?>
<!-- Created with Inkscape (http://www.inkscape.org/) -->

<svg
   xmlns:dc="http://purl.org/dc/elements/1.1/"
   xmlns:cc="http://creativecommons.org/ns#"
   xmlns:rdf="http://www.w3.org/1999/02/22-rdf-syntax-ns#"
   xmlns:svg="http://www.w3.org/2000/svg"
   xmlns="http://www.w3.org/2000/svg"
   xmlns:sodipodi="http://sodipodi.sourceforge.net/DTD/sodipodi-0.dtd"
   xmlns:inkscape="http://www.inkscape.org/namespaces/inkscape"
   width="297mm"
   height="210mm"
   viewBox="0 0 297 210"
   version="1.1"
   id="svg5010"
   inkscape:version="0.92.3 (2405546, 2018-03-11)"
   sodipodi:docname="logo.svg">
  <defs
     id="defs5004" />
  <sodipodi:namedview
     id="base"
     pagecolor="#ffffff"
     bordercolor="#666666"
     borderopacity="1.0"
     inkscape:pageopacity="0.0"
     inkscape:pageshadow="2"
     inkscape:zoom="0.7"
     inkscape:cx="705.29501"
     inkscape:cy="229.90791"
     inkscape:document-units="mm"
     inkscape:current-layer="layer1"
     showgrid="false"
     inkscape:window-width="1853"
     inkscape:window-height="1025"
     inkscape:window-x="67"
     inkscape:window-y="27"
     inkscape:window-maximized="1" />
  <metadata
     id="metadata5007">
    <rdf:RDF>
      <cc:Work
         rdf:about="">
        <dc:format>image/svg+xml</dc:format>
        <dc:type
           rdf:resource="http://purl.org/dc/dcmitype/StillImage" />
        <dc:title />
      </cc:Work>
    </rdf:RDF>
  </metadata>
  <g
     inkscape:label="Layer 1"
     inkscape:groupmode="layer"
     id="layer1"
     transform="translate(0,-87)"
     style="opacity:1">
    <g
       id="g883">
      <g
         id="g4985"
         style="opacity:1"
         transform="translate(-72.896443,-13.594061)">
        <g
           id="g4892"
           transform="translate(3.1750001)">
          <path
             sodipodi:type="star"
             style="fill:#333333;fill-opacity:1;stroke:none;stroke-width:2.0168457;stroke-miterlimit:4;stroke-dasharray:none;stroke-opacity:1"
             id="path4862"
             sodipodi:sides="6"
             sodipodi:cx="148.0005"
             sodipodi:cy="159.44157"
             sodipodi:r1="21.478016"
             sodipodi:r2="18.60051"
             sodipodi:arg1="0.5404195"
             sodipodi:arg2="1.0640183"
             inkscape:flatsided="true"
             inkscape:rounded="0"
             inkscape:randomized="0"
             d="m 166.41775,170.49192 -18.77851,10.42463 -18.41724,-11.05035 0.36126,-21.47497 18.7785,-10.42463 18.41725,11.05034 z"
             inkscape:transform-center-x="3.2148264e-06" />
          <path
             inkscape:transform-center-x="-2.7697222e-06"
             d="m 163.87273,169.02818 -16.06487,8.91819 -15.75581,-9.45349 0.30905,-18.37168 16.06487,-8.91819 15.75581,9.45349 z"
             inkscape:randomized="0"
             inkscape:rounded="0"
             inkscape:flatsided="true"
             sodipodi:arg2="1.0640183"
             sodipodi:arg1="0.5404195"
             sodipodi:r2="15.912592"
             sodipodi:r1="18.374277"
             sodipodi:cy="159.57469"
             sodipodi:cx="148.11691"
             sodipodi:sides="6"
             id="path4864"
             style="fill:#ffffff;fill-opacity:1;stroke:none;stroke-width:1.72539592;stroke-miterlimit:4;stroke-dasharray:none;stroke-opacity:1"
             sodipodi:type="star"
             inkscape:transform-center-y="-3.3417025e-06" />
          <path
             inkscape:transform-center-y="-7.0517008e-06"
             sodipodi:type="star"
             style="fill:#333333;fill-opacity:1;stroke:none;stroke-width:1.43481445;stroke-miterlimit:4;stroke-dasharray:none;stroke-opacity:1"
             id="path4866"
             sodipodi:sides="6"
             sodipodi:cx="148.10246"
             sodipodi:cy="159.59122"
             sodipodi:r1="15.279784"
             sodipodi:r2="13.232683"
             sodipodi:arg1="0.5404195"
             sodipodi:arg2="1.0640183"
             inkscape:flatsided="true"
             inkscape:rounded="0"
             inkscape:randomized="0"
             d="m 161.20477,167.4526 -13.35931,7.41624 -13.10231,-7.86138 0.25701,-15.27763 13.35931,-7.41624 13.1023,7.86139 z" />
          <path
             style="fill:#ffffff;fill-opacity:1;stroke:none;stroke-width:1.12226439;stroke-miterlimit:4;stroke-dasharray:none;stroke-opacity:1"
             d="m 137.92293,153.39523 -0.20086,11.93789 10.24829,6.14891 10.44916,-5.80084 0.2012,-11.94943 -0.1607,-0.0965 -10.45937,5.80644 z"
             id="path4868"
             inkscape:connector-curvature="0" />
          <path
             inkscape:transform-center-x="8.8362078e-06"
             inkscape:transform-center-y="-5.1446825e-06"
             sodipodi:type="star"
             style="fill:#ff0000;fill-opacity:1;stroke:none;stroke-width:0.82790661;stroke-miterlimit:4;stroke-dasharray:none;stroke-opacity:1"
             id="path4870"
             sodipodi:sides="6"
             sodipodi:cx="148.11311"
             sodipodi:cy="159.46568"
             sodipodi:r1="8.8166351"
             sodipodi:r2="7.6354284"
             sodipodi:arg1="0.5404195"
             sodipodi:arg2="1.0640183"
             inkscape:flatsided="true"
             inkscape:rounded="0"
             inkscape:randomized="0"
             d="m 155.67332,164.0018 -7.7085,4.27927 -7.5602,-4.53612 0.14829,-8.81539 7.7085,-4.27926 7.5602,4.53612 z" />
          <path
             style="fill:#ffffff;fill-opacity:1;stroke:none;stroke-width:1.9116689;stroke-miterlimit:4;stroke-dasharray:none;stroke-opacity:1"
             d="m 148.37308,145.92321 -11.29841,6.16571 0.37309,0.18407 10.92532,-5.96154 z m 0,1.63429 -9.72603,5.30756 0.37342,0.18408 9.35261,-5.1034 z m 0,1.59839 -8.18789,4.46819 0.37342,0.18441 7.81447,-4.26469 z m 0,1.60432 -6.64449,3.62553 0.37342,0.18441 6.27107,-3.42203 z m 0,1.62013 -5.08562,2.77496 0.37375,0.18441 4.71187,-2.57113 z m 0,1.57403 -3.57086,1.94843 0.37342,0.18441 3.19744,-1.74461 z m 0,1.67281 -1.96127,1.07021 0.37342,0.1844 1.58785,-0.8667 z"
             id="path4872"
             inkscape:connector-curvature="0" />
          <path
             id="path4874"
             d="m 148.37308,145.92321 11.29841,6.1657 -0.37309,0.18408 -10.92532,-5.96154 z m 0,1.63429 9.72603,5.30756 -0.37342,0.18408 -9.35261,-5.10341 z m 0,1.59839 8.1879,4.4682 -0.37342,0.1844 -7.81448,-4.26469 z m 0,1.60432 6.6445,3.62553 -0.37342,0.18441 -6.27108,-3.42203 z m 0,1.62013 5.08562,2.77496 -0.37375,0.18441 -4.71187,-2.57113 z m 0,1.57402 3.57087,1.94844 -0.37342,0.18441 -3.19745,-1.7446 z m 0,1.67282 1.96128,1.07021 -0.37342,0.1844 -1.58786,-0.8667 z"
             style="fill:#ffffff;fill-opacity:1;stroke:none;stroke-width:1.91166878;stroke-miterlimit:4;stroke-dasharray:none;stroke-opacity:1"
             inkscape:connector-curvature="0" />
        </g>
      </g>
    </g>
    <text
       xml:space="preserve"
       style="font-style:normal;font-variant:normal;font-weight:bold;font-stretch:normal;font-size:14.38025188px;line-height:1.25;font-family:Orbitron;-inkscape-font-specification:'Orbitron, Bold';font-variant-ligatures:normal;font-variant-caps:normal;font-variant-numeric:normal;font-feature-settings:normal;text-align:start;letter-spacing:0px;word-spacing:0px;writing-mode:lr-tb;text-anchor:start;fill:#ff0000;fill-opacity:1;stroke:none;stroke-width:0.35950494"
       x="102.5685"
       y="150.63824"
       id="text5579"><tspan
         sodipodi:role="line"
         id="tspan5577"
         x="102.5685"
         y="150.63824"
         style="font-style:normal;font-variant:normal;font-weight:bold;font-stretch:normal;font-size:14.38025188px;font-family:Orbitron;-inkscape-font-specification:'Orbitron, Bold';font-variant-ligatures:normal;font-variant-caps:normal;font-variant-numeric:normal;font-feature-settings:normal;text-align:start;writing-mode:lr-tb;text-anchor:start;fill:#ff0000;stroke-width:0.35950494">OPEN <tspan
   style="fill:#1a1a1a"
   id="tspan831">VANTAGE</tspan></tspan></text>
    <rect
       style="fill:#000000;fill-opacity:1;stroke:none;stroke-width:3;stroke-miterlimit:4;stroke-dasharray:none;stroke-opacity:1"
       id="rect833"
       width="297.20374"
       height="101.56242"
       x="0.53453904"
       y="195.97212" />
    <path
       sodipodi:type="star"
       style="fill:#ffffff;fill-opacity:1;stroke:none;stroke-width:2.0168457;stroke-miterlimit:4;stroke-dasharray:none;stroke-opacity:1"
       id="path835"
       sodipodi:sides="6"
       sodipodi:cx="77.901085"
       sodipodi:cy="245.63323"
       sodipodi:r1="21.478016"
       sodipodi:r2="18.60051"
       sodipodi:arg1="0.5404195"
       sodipodi:arg2="1.0640183"
       inkscape:flatsided="true"
       inkscape:rounded="0"
       inkscape:randomized="0"
       d="M 96.318332,256.68357 77.539826,267.1082 59.122579,256.05785 59.483838,234.58288 78.262344,224.15825 96.67959,235.20859 Z"
       inkscape:transform-center-x="3.2148264e-06" />
    <path
       inkscape:transform-center-x="-2.7697222e-06"
       d="m 93.773307,255.21983 -16.064867,8.91819 -15.755813,-9.45349 0.309055,-18.37168 16.064866,-8.91819 15.755813,9.45349 z"
       inkscape:randomized="0"
       inkscape:rounded="0"
       inkscape:flatsided="true"
       sodipodi:arg2="1.0640183"
       sodipodi:arg1="0.5404195"
       sodipodi:r2="15.912592"
       sodipodi:r1="18.374277"
       sodipodi:cy="245.76634"
       sodipodi:cx="78.017494"
       sodipodi:sides="6"
       id="path837"
       style="fill:#000000;fill-opacity:1;stroke:none;stroke-width:1.72539592;stroke-miterlimit:4;stroke-dasharray:none;stroke-opacity:1"
       sodipodi:type="star"
       inkscape:transform-center-y="-3.3417025e-06" />
    <path
       inkscape:transform-center-y="-7.0517008e-06"
       sodipodi:type="star"
       style="fill:#ffffff;fill-opacity:1;stroke:none;stroke-width:1.43481445;stroke-miterlimit:4;stroke-dasharray:none;stroke-opacity:1"
       id="path839"
       sodipodi:sides="6"
       sodipodi:cx="78.003044"
       sodipodi:cy="245.78287"
       sodipodi:r1="15.279784"
       sodipodi:r2="13.232683"
       sodipodi:arg1="0.5404195"
       sodipodi:arg2="1.0640183"
       inkscape:flatsided="true"
       inkscape:rounded="0"
       inkscape:randomized="0"
       d="m 91.105351,253.64425 -13.359312,7.41624 -13.102307,-7.86138 0.257005,-15.27763 13.359312,-7.41624 13.102307,7.86139 z" />
    <path
       style="fill:#000000;fill-opacity:1;stroke:none;stroke-width:1.12226439;stroke-miterlimit:4;stroke-dasharray:none;stroke-opacity:1"
       d="m 67.823511,239.58688 -0.20086,11.93789 10.24829,6.14891 10.44916,-5.80084 0.2012,-11.94943 -0.1607,-0.0965 -10.45937,5.80644 z"
       id="path841"
       inkscape:connector-curvature="0" />
    <path
       inkscape:transform-center-x="8.8362078e-06"
       inkscape:transform-center-y="-5.1446825e-06"
       sodipodi:type="star"
       style="fill:#ff0000;fill-opacity:1;stroke:none;stroke-width:0.82790661;stroke-miterlimit:4;stroke-dasharray:none;stroke-opacity:1"
       id="path843"
       sodipodi:sides="6"
       sodipodi:cx="78.013694"
       sodipodi:cy="245.65734"
       sodipodi:r1="8.8166351"
       sodipodi:r2="7.6354284"
       sodipodi:arg1="0.5404195"
       sodipodi:arg2="1.0640183"
       inkscape:flatsided="true"
       inkscape:rounded="0"
       inkscape:randomized="0"
       d="m 85.573897,250.19345 -7.708497,4.27927 -7.560203,-4.53612 0.148296,-8.81539 7.708497,-4.27926 7.560202,4.53612 z" />
    <path
       style="fill:#000000;fill-opacity:1;stroke:none;stroke-width:1.9116689;stroke-miterlimit:4;stroke-dasharray:none;stroke-opacity:1"
       d="m 78.273661,232.11486 -11.29841,6.16571 0.37309,0.18407 10.92532,-5.96154 z m 0,1.63429 -9.72603,5.30756 0.37342,0.18408 9.35261,-5.1034 z m 0,1.59839 -8.18789,4.46819 0.37342,0.18441 7.81447,-4.26469 z m 0,1.60432 -6.64449,3.62553 0.37342,0.18441 6.27107,-3.42203 z m 0,1.62013 -5.08562,2.77496 0.37375,0.18441 4.71187,-2.57113 z m 0,1.57403 -3.57086,1.94843 0.37342,0.18441 3.19744,-1.74461 z m 0,1.67281 -1.96127,1.07021 0.37342,0.1844 1.58785,-0.8667 z"
       id="path845"
       inkscape:connector-curvature="0" />
    <path
       id="path847"
       d="m 78.273661,232.11486 11.29841,6.1657 -0.37309,0.18408 -10.92532,-5.96154 z m 0,1.63429 9.72603,5.30756 -0.37342,0.18408 -9.35261,-5.10341 z m 0,1.59839 8.1879,4.4682 -0.37342,0.1844 -7.81448,-4.26469 z m 0,1.60432 6.6445,3.62553 -0.37342,0.18441 -6.27108,-3.42203 z m 0,1.62013 5.08562,2.77496 -0.37375,0.18441 -4.71187,-2.57113 z m 0,1.57402 3.57087,1.94844 -0.37342,0.18441 -3.19745,-1.7446 z m 0,1.67282 1.96128,1.07021 -0.37342,0.1844 -1.58786,-0.8667 z"
       style="fill:#000000;fill-opacity:1;stroke:none;stroke-width:1.91166878;stroke-miterlimit:4;stroke-dasharray:none;stroke-opacity:1"
       inkscape:connector-curvature="0" />
    <text
       id="text857"
       y="250.42397"
       x="102.19052"
       style="font-style:normal;font-variant:normal;font-weight:bold;font-stretch:normal;font-size:14.38025188px;line-height:1.25;font-family:Orbitron;-inkscape-font-specification:'Orbitron, Bold';font-variant-ligatures:normal;font-variant-caps:normal;font-variant-numeric:normal;font-feature-settings:normal;text-align:start;letter-spacing:0px;word-spacing:0px;writing-mode:lr-tb;text-anchor:start;fill:#ff0000;fill-opacity:1;stroke:none;stroke-width:0.35950494"
       xml:space="preserve"><tspan
         style="font-style:normal;font-variant:normal;font-weight:bold;font-stretch:normal;font-size:14.38025188px;font-family:Orbitron;-inkscape-font-specification:'Orbitron, Bold';font-variant-ligatures:normal;font-variant-caps:normal;font-variant-numeric:normal;font-feature-settings:normal;text-align:start;writing-mode:lr-tb;text-anchor:start;fill:#ff0000;stroke-width:0.35950494"
         y="250.42397"
         x="102.19052"
         id="tspan855"
         sodipodi:role="line">OPEN <tspan
   id="tspan853"
   style="fill:#ffffff">VANTAGE</tspan></tspan></text>
  </g>
</svg>
